<?xml version="1.0" encoding="UTF-8"?><svg id="_圖層_2" xmlns="http://www.w3.org/2000/svg" viewBox="0 0 565.49 108.41"><defs><style>.cls-1{fill:#00a199;}.cls-2{fill:#8dc21f;}</style></defs><g id="_文字"><path class="cls-1" d="M69.4,56.38c0-12.1-6.59-22.9-15.97-29.11L67.13,0H14.84l12.21,24.78,5.42-10.81h12.07l-3.98,8.2s-.02,0-.03,0l-6.37,13.13s.02,0,.03,0c.17,0,.34-.01.52-.01,4.95,0,9.5,1.71,13.09,4.56,4.87,3.86,8,9.83,8,16.53,0,6.11-2.6,11.62-6.76,15.47,3.42,3.17,5.78,7.45,6.52,12.27,8.41-6.33,13.85-16.4,13.85-27.74Z"/><circle class="cls-2" cx="34.7" cy="56.38" r="9.84" transform="translate(-27.99 77.64) rotate(-77.12)"/><path class="cls-2" d="M34.7,97.16c-4.6,0-8.45-3.15-9.54-7.41-4.14-1.18-7.96-3.11-11.31-5.63-.16,1.04-.24,2.11-.24,3.2,0,11.65,9.44,21.09,21.09,21.09s21.09-9.44,21.09-21.09c0-1.09-.08-2.15-.24-3.2-3.35,2.52-7.17,4.45-11.31,5.63-1.08,4.26-4.94,7.41-9.54,7.41Z"/><path class="cls-1" d="M44.24,89.75c.2-.78.3-1.6.3-2.44,0-5.44-4.41-9.84-9.84-9.84s-9.84,4.41-9.84,9.84c0,.84.11,1.66.3,2.44,3.03.86,6.23,1.33,9.54,1.33s6.51-.46,9.54-1.33Z"/><path class="cls-1" d="M20.37,71.84c-4.16-3.85-6.76-9.36-6.76-15.47,0-2.19.33-4.3.95-6.28H.57c-.37,2.04-.57,4.14-.57,6.28,0,11.34,5.44,21.41,13.85,27.74.73-4.82,3.1-9.1,6.52-12.27Z"/><path class="cls-1" d="M322.55,29.58c-.13,6.61-.63,13.18-1.52,19.7-.76,5.38-1.85,10.15-3.27,14.29-1.43,4.15-3.31,7.93-5.65,11.35-2.79,4.05-6.25,7.64-10.4,10.78-4.15,3.13-9.13,6.15-14.95,9.07l-.66-.66c3.42-3.48,6.3-7.1,8.64-10.87,2.34-3.76,4.3-7.7,5.89-11.82,1.46-3.92,2.61-7.96,3.46-12.1.86-4.15,1.47-8.43,1.85-12.87.57-6.14.9-12.23,1-18.27.06-3.96.13-7.94.21-11.94.07-3.51,2.94-6.34,6.45-6.34h2.61c3.56,0,6.47,2.87,6.47,6.43,0,4.4-.04,8.83-.13,13.27ZM374.86,95.7c-6.39-3.23-11.72-6.68-16-10.35-4.27-3.67-7.77-7.88-10.49-12.63-2.03-3.61-3.67-7.53-4.94-11.77-1.27-4.24-2.25-8.99-2.94-14.24-.76-6.14-1.17-12.28-1.24-18.42-.04-4.03-.03-8.06.04-12.1.06-3.51,2.96-6.32,6.47-6.32h2.53c3.52,0,6.4,2.82,6.46,6.34.06,3.86.1,7.72.12,11.61.03,6.01.36,12,1,17.94.44,3.99,1.08,7.96,1.9,11.91.82,3.96,1.9,7.83,3.23,11.63,1.58,4.75,3.54,9.27,5.89,13.58,2.34,4.3,5.16,8.35,8.45,12.15l-.47.66Z"/><path class="cls-1" d="M228.42,50.56c-.73,3.26-1.54,6.49-2.42,9.68-.89,3.2-1.85,6.27-2.9,9.21-1.04,2.94-2.14,5.62-3.28,8.02-1.27,2.72-2.79,5.03-4.56,6.93-1.77,1.9-3.77,3.51-5.98,4.84-2.4,1.46-5.05,2.59-7.93,3.42-2.88.82-5.93,1.39-9.16,1.71l-.28-.85c3.42-1.65,6.11-3.77,8.07-6.36,1.96-2.59,3.58-5.5,4.84-8.73,2.34-5.89,4.35-11.96,6.03-18.23,1.14-4.26,2.1-8.53,2.87-12.82.64-3.53,3.72-6.08,7.3-6.08h.16c4.75,0,8.31,4.39,7.28,9.04-.02.07-.03.15-.05.22ZM194.57,31.34v-5.32h33.32v-9.59c0-3.56,2.89-6.45,6.45-6.45h2.76c3.56,0,6.45,2.89,6.45,6.45v9.59h28.68l4.84,2.26v3.05h-82.5ZM280.59,94.09c-2.53,0-5.03-.24-7.5-.71-2.47-.48-4.81-1.22-7.02-2.23-2.79-1.2-5.27-2.81-7.45-4.84-2.18-2.03-3.97-4.46-5.36-7.31-2.91-5.95-5.35-12.06-7.31-18.32-1.05-3.34-2-6.73-2.87-10.17-1.17-4.67,2.43-9.2,7.25-9.2h0c3.46,0,6.51,2.38,7.25,5.76,1.22,5.55,2.64,11.02,4.27,16.41,2.18,7.25,5.14,14.19,8.88,20.84,1.01,1.77,2.36,3.45,4.04,5.03,1.68,1.58,3.62,2.91,5.84,3.99v.76Z"/><path class="cls-1" d="M277.07,28.28c0-3.19-2.59-5.78-5.78-5.78s-5.78,2.59-5.78,5.78c0,1.12.33,2.17.89,3.05h9.78c.56-.89.89-1.93.89-3.05Z"/><path class="cls-1" d="M451,93.85c-5.76.03-11.36-.02-16.8-.14-3.04-.06-6.08-.28-9.11-.66-3.04-.38-6.05-1.01-9.02-1.9-2.91-.89-5.71-1.99-8.4-3.32-2.69-1.33-5.21-2.97-7.55-4.94-2.91,2.79-6.01,5.14-9.31,7.07-3.29,1.93-6.68,3.59-10.16,4.98l-.47-.66c2.85-2.66,5.47-5.49,7.88-8.5,2.4-3,4.27-6.22,5.6-9.64-2.21-3.23-4.03-6.65-5.46-10.25-1.43-3.61-2.55-7.34-3.37-11.2h5.03c.51,2.85,1.24,5.52,2.18,8.02.95,2.5,2.15,4.95,3.61,7.36.89-2.85,1.55-5.71,1.99-8.59.44-2.88.69-5.9.76-9.07.06-.7-.13-1.31-.57-1.85-.44-.54-1.01-.81-1.71-.81h-5.22c-.76,0-1.49-.11-2.18-.33-.7-.22-1.3-.68-1.8-1.38-1.46-1.71-1.65-3.57-.57-5.6l10.73-20.6c.19-.38.16-.76-.09-1.14-.25-.38-.64-.57-1.14-.57h-12.25v-5.22h20.7c1.33,0,2.53.21,3.61.62,1.08.41,1.93,1.03,2.56,1.85.7.83,1.15,1.82,1.38,2.99.22,1.17-.02,2.39-.71,3.66l-11.39,20.7h3.61c3.35,0,5.73.79,7.12,2.37,1.27,1.58,1.77,3.92,1.52,7.02-.51,4.43-1.38,8.77-2.61,13.01-1.24,4.24-3.24,8.16-6.03,11.77,3.99,3.29,8.26,5.66,12.82,7.12,2.78.89,5.65,1.5,8.59,1.85,2.94.35,5.93.55,8.97.62,5.63.13,11.31.18,17.04.14,5.73-.03,11.41-.14,17.04-.33v5.32c-5.44.13-11.05.2-16.8.24ZM463.63,35.42v5.41c0,2.66-.79,4.71-2.37,6.17-1.58,1.46-3.74,2.18-6.46,2.18h-11.77v7.22h16.74l4.53,2.08v3.15h-21.27v7.78h20.58l4.11,2.08v3.24h-24.69v11.11h-13.57v-11.11h-18.89v-5.32h18.89v-7.78h-15.29v-5.22h15.29v-7.22h-14.72v-5.31h14.72v-8.45h-18.42v-5.32h18.42v-7.6h-14.81v-5.22h14.81v-1.33c0-3.56,2.89-6.45,6.45-6.45h.67c3.56,0,6.45,2.89,6.45,6.45v1.33h11.11c3.1,0,5.47.79,7.12,2.37,1.58,1.46,2.37,3.58,2.37,6.36v4.08h4.18v5.32h-4.18ZM450.33,25.55c0-.88-.32-1.61-.95-2.18-.63-.57-1.39-.86-2.28-.86h-4.08v7.6h7.31v-4.56ZM450.33,35.42h-7.31v8.45h4.56c.63,0,1.25-.25,1.85-.76.6-.51.9-1.11.9-1.8v-5.89Z"/><path class="cls-1" d="M464.29,58.49c0-3.19-2.59-5.78-5.78-5.78s-5.78,2.59-5.78,5.78c0,1.12.33,2.17.89,3.05h9.78c.56-.89.89-1.93.89-3.05Z"/><path class="cls-1" d="M467.8,71.48c0-3.19-2.59-5.78-5.78-5.78s-5.78,2.59-5.78,5.78c0,1.12.33,2.17.89,3.05h9.78c.56-.89.89-1.93.89-3.05Z"/><path class="cls-1" d="M100.11,92v-5.32h77.61l4.8,2.26v3.05h-82.41ZM102.01,17.67v-5.32h72.16l5.78,2.26v3.05h-77.94ZM106.66,53.55v-5.22h64.4l4.8,2.17v3.05h-69.21Z"/><path class="cls-1" d="M179.95,14.61c0-3.19-2.59-5.78-5.78-5.78s-5.78,2.59-5.78,5.78c0,1.12.33,2.17.89,3.05h9.78c.56-.89.89-1.93.89-3.05Z"/><path class="cls-1" d="M182.51,88.95c0-3.19-2.59-5.78-5.78-5.78s-5.78,2.59-5.78,5.78c0,1.12.33,2.17.89,3.05h9.78c.56-.89.89-1.93.89-3.05Z"/><path class="cls-1" d="M175.87,50.5c0-3.19-2.59-5.78-5.78-5.78s-5.78,2.59-5.78,5.78c0,1.12.33,2.17.89,3.05h9.78c.56-.89.89-1.93.89-3.05Z"/><path class="cls-1" d="M478.72,24.12v-5.32h9.59v-2.66c0-3.56,2.89-6.45,6.45-6.45h1.81c3.56,0,6.45,2.89,6.45,6.45v2.66h4.46l5.41,2.26v3.05h-34.18ZM509.29,90.77c-.7.69-1.51,1.23-2.42,1.61-.92.38-1.98.57-3.18.57h-4.84c-1.2,0-2.33-.46-3.37-1.38-1.05-.92-1.82-1.92-2.33-2.99v4.37h-12.63v-35.02h12.63v3.98c.38-.89,1.01-1.77,1.9-2.66.88-.89,1.96-1.33,3.23-1.33h5.89c2.03,0,3.7.83,5.03,2.47,1.26,1.39,1.9,3.07,1.9,5.03v19.84c0,2.15-.6,3.99-1.8,5.51ZM480.72,37.13v-5.22h24.6l5.78,2.17-.09,3.05h-30.28ZM480.72,49.95v-5.13h24.97l5.41,2.56v2.56h-30.38ZM498.56,65.14c0-.57-.22-1.08-.66-1.52-.44-.44-.95-.66-1.52-.66h-3.23v24.69h3.51c.63,0,1.11-.28,1.43-.86.32-.57.47-1.1.47-1.61v-20.03ZM557.47,93.57c-2.5-.47-4.94-1.08-7.31-1.8-2.37-.73-4.72-1.6-7.03-2.61-2.31-1.01-4.73-2.22-7.26-3.61-4.24,2.66-8.72,4.65-13.43,5.98-4.71,1.33-9.57,2.4-14.57,3.23l-.38-.76c3.67-1.96,7.26-4.16,10.78-6.6,3.51-2.44,6.79-5.24,9.83-8.4-3.04-3.17-5.51-6.61-7.41-10.35-1.9-3.73-3.48-7.6-4.75-11.58h14.91c1.2,4.05,3.07,7.91,5.6,11.58,3.04-3.92,5.35-8.04,6.93-12.34.25-.7.13-1.34-.38-1.95-.51-.6-1.11-.9-1.8-.9h-26.96v-5.22h35.51c1.58,0,2.94.28,4.08.85,1.14.57,2.06,1.36,2.75,2.37,1.52,2.09,1.84,4.72.95,7.88-1.2,3.8-2.99,7.28-5.36,10.44-2.37,3.17-4.98,6.14-7.83,8.93,3.04,3.23,6.37,6.11,10.01,8.64,3.64,2.53,7.36,4.68,11.16,6.46v.85c-2.85-.25-5.52-.62-8.02-1.09ZM549.35,43.96c-2.34,0-4.27-.82-5.79-2.47-1.52-1.65-2.28-3.8-2.28-6.46v-15.38c0-1.07-.37-1.96-1.09-2.66-.73-.69-1.63-1.04-2.71-1.04h-6.74v7.41c0,5.44-1.39,10.13-4.18,14.05-1.58,2.09-3.56,3.92-5.93,5.51-2.37,1.58-5.17,2.82-8.4,3.7l-.48-.67c2.03-2.78,3.45-5.87,4.27-9.26.82-3.38,1.23-6.79,1.23-10.2v-15.76h13.48v4.08c.57-1.27,1.41-2.26,2.52-2.99,1.11-.73,2.2-1.09,3.28-1.09h9.78c1.33,0,2.53.25,3.61.76,1.07.51,1.99,1.17,2.75,1.99,1.71,1.84,2.56,4.02,2.56,6.55v15.57c0,.7.25,1.39.76,2.09.51.7,1.14,1.05,1.9,1.05h2.4l3.49,2.07v3.15h-14.43ZM505.31,31.91l5.78,2.17-.09,3.05"/><path class="cls-1" d="M512.9,21.07c0-3.19-2.59-5.78-5.78-5.78s-5.78,2.59-5.78,5.78c0,1.12.33,2.17.89,3.05h9.78c.56-.89.89-1.93.89-3.05Z"/><path class="cls-1" d="M511.09,34.07c0-3.19-2.59-5.78-5.78-5.78s-5.78,2.59-5.78,5.78c0,1.12.33,2.17.89,3.05h9.78c.56-.89.89-1.93.89-3.05Z"/><path class="cls-1" d="M563.79,40.82c0-3.19-2.59-5.78-5.78-5.78s-5.78,2.59-5.78,5.78c0,1.12.33,2.17.89,3.05h9.78c.56-.89.89-1.93.89-3.05Z"/><path class="cls-1" d="M511.09,46.89c0-3.19-2.59-5.78-5.78-5.78s-5.78,2.59-5.78,5.78c0,1.12.33,2.17.89,3.05h9.78c.56-.89.89-1.93.89-3.05Z"/><rect class="cls-1" x="485.92" y="57.93" width="17.56" height="4.87"/><rect class="cls-1" x="524.56" y="10.73" width="17.56" height="4.87"/><rect class="cls-1" x="487.03" y="87.64" width="17.56" height="5.32"/></g></svg>