<?xml version="1.0" encoding="UTF-8"?><svg id="_圖層_2" xmlns="http://www.w3.org/2000/svg" viewBox="0 0 987.61 90.48"><defs><style>.cls-1{fill:none;stroke:#ee731b;stroke-miterlimit:10;}</style></defs><g id="_文字"><path class="cls-1" d="M54.98,1.46c-3.84-.17-7.62-.22-11.32-.13-3.7.09-7.09.28-10.18.57L6.67,78.68c-.39.11-.78.22-1.15.34-1.81.55-3.26,1.15-4.37,1.79l-.61,7.69h27.79l.61-7.87-8.56-1.8,4.4-13.49h30.93l4.09,12.66c-3.02.71-5.57,1.53-7.62,2.46l-.61,8.04h36.53l.61-7.87-6.49-1.23L54.98,1.46ZM28.32,54.5l12-36.77,11.89,36.77h-23.89Z"/><path class="cls-1" d="M148.61,51.19c4.24-1.58,7.78-3.71,10.57-6.43,4.69-4.57,7.04-10.41,7.04-17.52,0-8.16-3.09-14.4-9.26-18.74-6.18-4.34-15.03-6.51-26.56-6.51h-37.31l-.61,7.86,8.56,1.87v66.51c-3,.81-5.53,1.67-7.6,2.57l-.61,7.69h36.44l.61-7.87-7.86-1.85v-22.54c1.71.06,3.4.1,5.04.1l24.32,32.16h23.86l.61-8.21-4.92-.92-22.3-28.17ZM122,17.89v-4.54h7.6c9.03,0,13.54,5.3,13.54,15.9s-4.75,16.6-14.24,16.6c-2.26,0-4.57-.07-6.9-.16v-27.8Z"/><path class="cls-1" d="M235.42,78.3c-2.5.44-5.09.67-7.77.67-17.54,0-26.3-11.68-26.3-35.04,0-21.61,7.49-32.42,22.46-32.42,4.4,0,8.65.63,12.73,1.88l7.71,16.3h9c.47-7.63.12-15.41-1.05-23.33-3.03-1.8-6.98-3.23-11.84-4.28-4.87-1.05-9.89-1.57-15.07-1.57-9.73,0-18.16,1.91-25.3,5.72-7.14,3.82-12.66,9.21-16.56,16.17-3.9,6.96-5.85,15.19-5.85,24.68,0,13.81,4.19,24.41,12.58,31.81,8.39,7.4,20.39,11.1,36,11.1,5.12,0,10.08-.54,14.85-1.62,4.78-1.08,8.65-2.52,11.62-4.33,2.1-8.39,3.09-16.6,2.97-24.64h-9.35l-10.84,18.91Z"/><path class="cls-1" d="M344.56,72.59V12.25c3-.81,5.53-1.67,7.6-2.57l.61-7.69h-37.14l-.61,7.86,8.56,1.87v27.58h-31.11V12.25c3-.81,5.53-1.67,7.6-2.57l.61-7.69h-37.14l-.61,7.86,8.56,1.87v66.51c-3,.81-5.53,1.67-7.6,2.57l-.61,7.69h37.14l.61-7.87-8.56-1.87v-28.28h31.11v27.75c-3,.81-5.53,1.67-7.6,2.57l-.61,7.69h37.14l.61-7.87-8.56-1.87v-6.17Z"/><path class="cls-1" d="M390.53,72.59V12.25c3-.81,5.53-1.67,7.6-2.57l.61-7.69h-37.14l-.61,7.86,8.56,1.87v66.51c-3,.81-5.53,1.67-7.6,2.57l-.61,7.69h37.14l.61-7.87-8.56-1.87v-6.17Z"/><path class="cls-1" d="M406.61,1.99c-1.81,9.15-2.3,18.61-1.49,28.4h8.56l8.09-17.04h11.4v64.9c-1.11.22-2.2.46-3.28.73-2.13.53-4.03,1.14-5.72,1.84l-.61,7.69h39.93l.61-7.87-9.96-1.87V13.35h11.4l8.09,17.04h8.56c.81-9.79.32-19.25-1.49-28.4h-74.1Z"/><path class="cls-1" d="M552.45,60.97l-9.27,16.17h-25.6v-27.09h27.35l.87-11.88h-28.22V13.35h24.77l6.95,14.59h9.52c.29-4.14.28-8.45-.04-12.93-.32-4.49-.95-8.83-1.88-13.02h-68.25l-.61,7.86,8.56,1.87v66.51c-3,.81-5.53,1.67-7.6,2.57l-.61,7.69h69.47c1.4-4.83,2.43-9.64,3.1-14.42.67-4.78.95-9.15.83-13.11h-9.35Z"/><path class="cls-1" d="M626.11,78.3c-2.5.44-5.09.67-7.77.67-17.54,0-26.3-11.68-26.3-35.04,0-21.61,7.49-32.42,22.46-32.42,4.4,0,8.65.63,12.73,1.88l7.71,16.3h9c.47-7.63.12-15.41-1.05-23.33-3.03-1.8-6.98-3.23-11.84-4.28-4.87-1.05-9.89-1.57-15.07-1.57-9.73,0-18.16,1.91-25.3,5.72-7.14,3.82-12.66,9.21-16.56,16.17-3.9,6.96-5.85,15.19-5.85,24.68,0,13.81,4.19,24.41,12.58,31.81,8.39,7.4,20.39,11.1,36,11.1,5.12,0,10.08-.54,14.85-1.62,4.78-1.08,8.65-2.52,11.62-4.33,2.1-8.39,3.09-16.6,2.97-24.64h-9.35l-10.84,18.91Z"/><path class="cls-1" d="M653.29,1.99c-1.81,9.15-2.3,18.61-1.49,28.4h8.56l8.09-17.04h11.4v64.9c-1.11.22-2.2.46-3.28.73-2.13.53-4.03,1.14-5.72,1.84l-.61,7.69h39.93l.61-7.87-9.96-1.87V13.35h11.4l8.09,17.04h8.56c.81-9.79.32-19.25-1.49-28.4h-74.1Z"/><path class="cls-1" d="M787.33,9.85l9.79,1.86v48.82c0,5.01-1.52,8.87-4.54,11.58-3.03,2.71-7.31,4.06-12.84,4.06s-9.79-1.35-12.76-4.06c-2.97-2.71-4.46-6.57-4.46-11.58V12.13c1.45-.35,2.8-.69,4.02-1.01,2.1-.55,3.7-1.03,4.81-1.44l.61-7.69h-37.84l-.61,7.86,7.69,1.88v51.51c0,8.16,3.22,14.65,9.66,19.49,6.44,4.84,15.1,7.25,26,7.25s19.56-2.42,26-7.25c6.44-4.83,9.66-11.33,9.66-19.49V12.22c2.89-.88,5.14-1.73,6.73-2.55l.61-7.69h-31.89l-.61,7.86Z"/><path class="cls-1" d="M882.45,51.19c4.25-1.58,7.78-3.71,10.57-6.43,4.69-4.57,7.04-10.41,7.04-17.52,0-8.16-3.09-14.4-9.26-18.74-6.18-4.34-15.03-6.51-26.56-6.51h-37.31l-.61,7.86,8.56,1.87v66.51c-3,.81-5.53,1.67-7.6,2.57l-.61,7.69h36.44l.61-7.87-7.86-1.85v-22.54c1.71.06,3.4.1,5.04.1l24.32,32.16h23.86l.61-8.21-4.92-.92-22.3-28.17ZM855.84,17.89v-4.54h7.6c9.03,0,13.54,5.3,13.54,15.9s-4.75,16.6-14.24,16.6c-2.26,0-4.57-.07-6.9-.16v-27.8Z"/><path class="cls-1" d="M987.09,60.97h-9.35l-9.27,16.17h-25.6v-27.09h27.35l.87-11.88h-28.22V13.35h24.77l6.95,14.59h9.52c.29-4.14.28-8.45-.04-12.93-.32-4.49-.95-8.83-1.88-13.02h-68.25l-.61,7.86,8.56,1.87v66.51c-3,.81-5.53,1.67-7.6,2.57l-.61,7.69h69.47c1.4-4.83,2.43-9.64,3.1-14.42.67-4.78.95-9.15.83-13.11Z"/></g></svg>