<?xml version="1.0" encoding="UTF-8"?><svg id="_圖層_2" xmlns="http://www.w3.org/2000/svg" viewBox="0 0 694.26 90.3"><defs><style>.cls-1{fill:none;stroke:#ee731b;stroke-miterlimit:10;}</style></defs><g id="_文字"><path class="cls-1" d="M52.23,77.05h-22.16V12.17c1.72-.31,3.35-.63,4.89-.97,2.5-.55,4.57-1.09,6.2-1.62l.61-7.69H1.14l-.61,7.86,8.56,1.87v66.51c-3,.81-5.53,1.67-7.6,2.57l-.61,7.69h66.58c2.74-9.61,4.11-19.95,4.11-31.02h-8.21l-11.13,19.66Z"/><path class="cls-1" d="M107.92,72.5V12.16c3-.81,5.53-1.67,7.6-2.57l.61-7.69h-37.14l-.61,7.86,8.56,1.87v66.51c-3,.81-5.53,1.67-7.6,2.57l-.61,7.69h37.14l.61-7.86-8.56-1.87v-6.17Z"/><path class="cls-1" d="M189.37,1.9h-64.4l-.61,7.86,8.56,1.87v66.51c-3,.81-5.53,1.67-7.6,2.57l-.61,7.69h39.76l.61-7.86-11.18-1.85v-25.76h25.6l.87-11.88h-26.48V13.26h20.91l7.48,15.82h9c.29-4.66.28-9.34-.04-14.02-.32-4.69-.95-9.07-1.88-13.15Z"/><path class="cls-1" d="M262.68,60.88l-9.27,16.17h-25.6v-27.09h27.35l.87-11.88h-28.22V13.26h24.77l6.95,14.59h9.52c.29-4.14.28-8.45-.04-12.93-.32-4.48-.95-8.83-1.88-13.02h-68.25l-.61,7.86,8.56,1.87v66.51c-3,.81-5.53,1.67-7.6,2.57l-.61,7.69h69.47c1.4-4.83,2.43-9.64,3.1-14.42.67-4.78.95-9.15.83-13.11h-9.35Z"/><path class="cls-1" d="M348.31,36.24l-10.14-3.15c-4.6-1.46-7.94-3.15-10-5.07-2.07-1.92-3.1-4.31-3.1-7.17,0-6.47,4.11-9.7,12.32-9.7,3.81,0,7.77.69,11.85,2.07l7.02,14.61h9.35c.47-6.47.12-13.66-1.05-21.58-7.52-3.84-15.9-5.77-25.17-5.77-10.14,0-18.21,2.48-24.21,7.43-6,4.95-9,11.59-9,19.92,0,12.64,7.63,21.32,22.89,26.04l10.14,3.15c4.31,1.34,7.43,2.93,9.35,4.76,1.92,1.83,2.88,4.15,2.88,6.95,0,3.32-1.22,5.88-3.67,7.69-2.45,1.81-5.94,2.71-10.49,2.71s-8.95-.84-13.3-2.48l-8.9-18.93h-9c-.76,6.64-.41,14.71,1.05,24.21,7.22,5.24,16.6,7.86,28.14,7.86,10.83,0,19.44-2.53,25.82-7.6,6.38-5.07,9.57-11.91,9.57-20.53,0-12.29-7.46-20.77-22.37-25.43Z"/><path class="cls-1" d="M378.2,1.9c-1.81,9.15-2.3,18.61-1.49,28.4h8.56l8.09-17.04h11.4v64.9c-1.11.22-2.2.46-3.28.73-2.13.52-4.03,1.14-5.72,1.84l-.61,7.69h39.93l.61-7.86-9.96-1.87V13.26h11.4l8.09,17.04h8.56c.81-9.79.32-19.25-1.49-28.4h-74.1Z"/><path class="cls-1" d="M508.66,9.76l9.38,1.81-16.75,34.06-16.76-33.38c3.78-.79,6.65-1.62,8.58-2.49l.61-7.86h-37.4l-.61,7.86,6.45,1.22,24.57,47.2v19.98c-1.11.22-2.2.46-3.28.73-2.13.52-4.03,1.14-5.72,1.84l-.61,7.69h39.93l.61-7.86-9.96-1.87v-20.93l24.1-46.04c.41-.12.81-.24,1.19-.37,1.78-.58,3.22-1.16,4.33-1.75l.61-7.69h-28.66l-.61,7.86Z"/><path class="cls-1" d="M594,77.05h-22.16V12.17c1.72-.31,3.35-.63,4.89-.97,2.5-.55,4.57-1.09,6.2-1.62l.61-7.69h-40.63l-.61,7.86,8.56,1.87v66.51c-3,.81-5.53,1.67-7.6,2.57l-.61,7.69h66.59c2.74-9.61,4.11-19.95,4.11-31.02h-8.21l-11.13,19.66Z"/><path class="cls-1" d="M693.73,60.88h-9.35l-9.27,16.17h-25.6v-27.09h27.35l.87-11.88h-28.22V13.26h24.77l6.95,14.59h9.52c.29-4.14.28-8.45-.04-12.93-.32-4.48-.95-8.83-1.88-13.02h-68.25l-.61,7.86,8.56,1.87v66.51c-3,.81-5.53,1.67-7.6,2.57l-.61,7.69h69.47c1.4-4.83,2.43-9.64,3.1-14.42.67-4.78.95-9.15.83-13.11Z"/></g></svg>