<?xml version="1.0" encoding="UTF-8"?><svg id="_圖層_2" xmlns="http://www.w3.org/2000/svg" viewBox="0 0 105.68 65.71"><defs><style>.cls-1{fill:none;stroke:#de7120;stroke-miterlimit:10;}</style></defs><g id="_素材"><path class="cls-1" d="M45.88,20.77h-5.98V3.27c.46-.08.9-.17,1.32-.26.68-.15,1.23-.29,1.67-.44l.16-2.07h-10.96l-.16,2.12,2.31.5v17.94c-.81.22-1.49.45-2.05.69l-.16,2.07h17.96c.74-2.59,1.11-5.38,1.11-8.37h-2.22l-3,5.3Z"/><path class="cls-1" d="M60.9,19.55V3.27c.81-.22,1.49-.45,2.05-.69l.16-2.07h-10.02l-.16,2.12,2.31.5v17.94c-.81.22-1.49.45-2.05.69l-.16,2.07h10.02l.16-2.12-2.31-.5v-1.66Z"/><path class="cls-1" d="M82.87.5h-17.37l-.16,2.12,2.31.5v17.94c-.81.22-1.49.45-2.05.69l-.16,2.07h10.73l.16-2.12-3.02-.5v-6.95h6.91l.24-3.21h-7.14V3.56h5.64l2.02,4.27h2.43c.08-1.26.07-2.52-.01-3.78-.09-1.26-.26-2.45-.51-3.55Z"/><path class="cls-1" d="M102.65,16.41l-2.5,4.36h-6.91v-7.31h7.38l.24-3.21h-7.61V3.56h6.68l1.87,3.94h2.57c.08-1.12.07-2.28-.01-3.49-.09-1.21-.26-2.38-.51-3.51h-18.41l-.16,2.12,2.31.5v17.94c-.81.22-1.49.45-2.05.69l-.16,2.07h18.74c.38-1.3.66-2.6.84-3.89.18-1.29.25-2.47.22-3.54h-2.52Z"/><path class="cls-1" d="M11.99,50.76l-2.73-.85c-1.24-.39-2.14-.85-2.7-1.37-.56-.52-.84-1.16-.84-1.93,0-1.74,1.11-2.62,3.32-2.62,1.03,0,2.09.19,3.2.56l1.89,3.94h2.52c.13-1.74.03-3.68-.28-5.82-2.03-1.04-4.29-1.56-6.79-1.56-2.73,0-4.91.67-6.53,2-1.62,1.34-2.43,3.13-2.43,5.37,0,3.41,2.06,5.75,6.18,7.02l2.73.85c1.16.36,2,.79,2.52,1.28.52.49.78,1.12.78,1.87,0,.9-.33,1.59-.99,2.07-.66.49-1.6.73-2.83.73s-2.41-.23-3.59-.67l-2.4-5.11H.6c-.2,1.79-.11,3.97.28,6.53,1.95,1.41,4.48,2.12,7.59,2.12,2.92,0,5.24-.68,6.97-2.05,1.72-1.37,2.58-3.21,2.58-5.54,0-3.32-2.01-5.6-6.03-6.86Z"/><path class="cls-1" d="M20.05,41.5c-.49,2.47-.62,5.02-.4,7.66h2.31l2.18-4.6h3.07v17.51c-.3.06-.59.12-.88.2-.57.14-1.09.31-1.54.49l-.16,2.07h10.77l.17-2.12-2.69-.5v-17.65h3.07l2.18,4.6h2.31c.22-2.64.09-5.19-.4-7.66h-19.99Z"/><path class="cls-1" d="M55.24,43.62l2.53.49-4.52,9.19-4.52-9.01c1.02-.21,1.79-.44,2.32-.67l.16-2.12h-10.09l-.16,2.12,1.74.33,6.63,12.73v5.39c-.3.06-.59.12-.88.2-.57.14-1.09.31-1.54.49l-.16,2.07h10.77l.16-2.12-2.69-.5v-5.65l6.5-12.42c.11-.03.22-.07.32-.1.48-.16.87-.31,1.17-.47l.16-2.07h-7.73l-.16,2.12Z"/><path class="cls-1" d="M78.26,61.77h-5.98v-17.5c.46-.08.9-.17,1.32-.26.68-.15,1.23-.29,1.67-.44l.16-2.07h-10.96l-.16,2.12,2.31.5v17.94c-.81.22-1.49.45-2.05.69l-.16,2.07h17.96c.74-2.59,1.11-5.38,1.11-8.37h-2.22l-3,5.3Z"/><path class="cls-1" d="M105.17,57.41h-2.52l-2.5,4.36h-6.91v-7.31h7.38l.24-3.21h-7.61v-6.69h6.68l1.87,3.94h2.57c.08-1.12.07-2.28-.01-3.49-.09-1.21-.26-2.38-.51-3.51h-18.41l-.16,2.12,2.31.5v17.94c-.81.22-1.49.45-2.05.69l-.16,2.07h18.74c.38-1.3.66-2.6.84-3.89.18-1.29.25-2.47.22-3.54Z"/></g></svg>