<?xml version="1.0" encoding="UTF-8"?><svg id="_圖層_2" xmlns="http://www.w3.org/2000/svg" viewBox="0 0 764.96 90.65"><defs><style>.cls-1{fill:none;stroke:#ee731b;stroke-miterlimit:10;}</style></defs><g id="_文字"><path class="cls-1" d="M2.37,2.07C.56,11.22.06,20.69.88,30.47h8.56l8.09-17.04h11.4v64.9c-1.11.22-2.2.46-3.28.73-2.13.52-4.03,1.14-5.72,1.83l-.61,7.69h39.93l.61-7.86-9.96-1.87V13.43h11.4l8.09,17.04h8.56c.81-9.79.32-19.25-1.49-28.4H2.37Z"/><path class="cls-1" d="M139.95,51.28c4.25-1.58,7.78-3.71,10.57-6.43,4.69-4.57,7.04-10.41,7.04-17.52,0-8.16-3.09-14.4-9.26-18.74-6.18-4.34-15.03-6.51-26.56-6.51h-37.31l-.61,7.86,8.56,1.87v66.51c-3,.81-5.53,1.67-7.6,2.57l-.61,7.69h36.44l.61-7.86-7.86-1.85v-22.54c1.71.06,3.4.1,5.04.1l24.32,32.16h23.86l.61-8.21-4.92-.92-22.3-28.17ZM113.34,17.98v-4.54h7.6c9.03,0,13.54,5.3,13.54,15.9s-4.75,16.6-14.24,16.6c-2.26,0-4.57-.06-6.9-.16v-27.8Z"/><path class="cls-1" d="M221.96,1.55c-3.84-.17-7.62-.22-11.32-.13-3.7.09-7.09.28-10.18.57l-26.81,76.78c-.39.11-.78.22-1.15.34-1.81.55-3.26,1.15-4.37,1.79l-.61,7.69h27.79l.61-7.86-8.56-1.8,4.4-13.49h30.93l4.09,12.66c-3.02.71-5.57,1.53-7.62,2.46l-.61,8.04h36.53l.61-7.86-6.49-1.23L221.96,1.55ZM195.3,54.59l12-36.77,11.89,36.77h-23.89Z"/><path class="cls-1" d="M318.17,9.94l8.56,1.87v45.56L281.47,2.07h-21.41l-.61,7.86,8.74,3.09v65.29c-3,.81-5.53,1.67-7.6,2.57l-.61,7.69h31.37l.61-7.86-9.79-1.86v-44.9l45.26,55.16c5.12.29,9.55.14,13.28-.44V12.33c2.6-.73,4.97-1.58,7.08-2.57l.61-7.69h-29.62l-.61,7.86Z"/><path class="cls-1" d="M397.42,36.41l-10.14-3.15c-4.6-1.46-7.94-3.15-10-5.07-2.07-1.92-3.1-4.31-3.1-7.17,0-6.47,4.11-9.7,12.32-9.7,3.81,0,7.77.69,11.85,2.07l7.02,14.62h9.35c.47-6.47.12-13.66-1.05-21.58-7.52-3.84-15.9-5.77-25.17-5.77-10.14,0-18.21,2.48-24.21,7.43-6,4.95-9,11.59-9,19.92,0,12.64,7.63,21.32,22.89,26.04l10.14,3.15c4.31,1.34,7.43,2.93,9.35,4.76,1.92,1.83,2.88,4.15,2.88,6.95,0,3.32-1.22,5.88-3.67,7.69-2.45,1.81-5.94,2.71-10.49,2.71s-8.94-.84-13.3-2.48l-8.9-18.93h-9c-.76,6.64-.41,14.71,1.05,24.2,7.22,5.24,16.6,7.86,28.14,7.86,10.84,0,19.44-2.53,25.82-7.6,6.38-5.07,9.57-11.91,9.57-20.53,0-12.29-7.46-20.77-22.37-25.43Z"/><path class="cls-1" d="M493.54,9.15c-6.12-4.72-14.85-7.08-26.21-7.08h-39.06l-.61,7.86,8.56,1.87v66.51c-3,.81-5.53,1.67-7.6,2.57l-.61,7.69h39.76l.61-7.86-11.18-1.85v-18.42c2.42.11,4.79.18,7.08.18,11.77,0,21.12-2.81,28.05-8.43,6.93-5.62,10.4-13.18,10.4-22.68,0-8.85-3.06-15.64-9.18-20.36ZM465.84,49.78c-2.83,0-5.71-.08-8.65-.24V13.43h9.35c8.62,0,12.93,6,12.93,18s-4.54,18.35-13.63,18.35Z"/><path class="cls-1" d="M576.12,6c-6.64-3.67-14.48-5.5-23.51-5.5s-16.86,1.84-23.51,5.5c-6.64,3.67-11.77,8.87-15.38,15.6-3.61,6.73-5.42,14.67-5.42,23.81s1.8,16.98,5.42,23.68c3.61,6.7,8.74,11.88,15.38,15.55,6.64,3.67,14.45,5.5,23.42,5.5s16.95-1.83,23.59-5.5c6.64-3.67,11.77-8.87,15.38-15.6,3.61-6.73,5.42-14.67,5.42-23.81s-1.81-17.05-5.42-23.72c-3.61-6.67-8.74-11.84-15.38-15.51ZM554.71,78.97c-7.22,0-12.8-3.2-16.73-9.61-3.93-6.41-5.9-15.55-5.9-27.44,0-20.15,6.15-30.23,18.44-30.23,7.28,0,12.87,3.2,16.78,9.61,3.9,6.41,5.85,15.55,5.85,27.44,0,20.16-6.15,30.23-18.44,30.23Z"/><path class="cls-1" d="M660.57,51.28c4.25-1.58,7.78-3.71,10.57-6.43,4.69-4.57,7.04-10.41,7.04-17.52,0-8.16-3.09-14.4-9.26-18.74-6.18-4.34-15.03-6.51-26.56-6.51h-37.31l-.61,7.86,8.56,1.87v66.51c-3,.81-5.53,1.67-7.6,2.57l-.61,7.69h36.44l.61-7.86-7.86-1.85v-22.54c1.71.06,3.4.1,5.04.1l24.32,32.16h23.86l.61-8.21-4.92-.92-22.3-28.17ZM633.96,17.98v-4.54h7.6c9.03,0,13.54,5.3,13.54,15.9s-4.75,16.6-14.24,16.6c-2.26,0-4.57-.06-6.9-.16v-27.8Z"/><path class="cls-1" d="M762.59,2.07h-74.1c-1.81,9.15-2.3,18.61-1.49,28.4h8.56l8.09-17.04h11.4v64.9c-1.11.22-2.2.46-3.28.73-2.13.52-4.03,1.14-5.72,1.83l-.61,7.69h39.93l.61-7.86-9.96-1.87V13.43h11.4l8.09,17.04h8.56c.81-9.79.32-19.25-1.49-28.4Z"/></g></svg>