<?xml version="1.0" encoding="UTF-8"?><svg id="_圖層_2" xmlns="http://www.w3.org/2000/svg" viewBox="0 0 143.16 69.38"><defs><style>.cls-1{fill:none;stroke:#de7120;stroke-miterlimit:10;stroke-width:.5px;}</style></defs><g id="_素材"><path class="cls-1" d="M14.31,12l-3.33-1.03c-1.51-.48-2.61-1.03-3.29-1.67-.68-.63-1.02-1.42-1.02-2.35,0-2.12,1.35-3.19,4.05-3.19,1.25,0,2.55.23,3.9.68l2.31,4.8h3.07c.15-2.13.04-4.49-.34-7.09C17.19.88,14.43.25,11.39.25c-3.33,0-5.98.81-7.95,2.44C1.46,4.32.47,6.5.47,9.24c0,4.15,2.51,7.01,7.52,8.56l3.33,1.03c1.42.44,2.44.96,3.07,1.56.63.6.95,1.36.95,2.28,0,1.09-.4,1.93-1.21,2.53-.8.59-1.95.89-3.45.89s-2.94-.28-4.37-.82l-2.92-6.22H.44c-.25,2.18-.13,4.83.34,7.95,2.37,1.72,5.46,2.58,9.25,2.58,3.56,0,6.39-.83,8.49-2.5,2.1-1.67,3.14-3.92,3.14-6.75,0-4.04-2.45-6.82-7.35-8.36Z"/><path class="cls-1" d="M58.57,4.07c.98-.24,1.85-.51,2.61-.83l.2-2.53h-11.46l-6.51,19.1L36.6.71h-11.46l-.2,2.58,2.98.62-1.42,21.86c-.93.26-1.71.54-2.33.85l-.2,2.53h9.99l.2-2.58-3.1-.61,1-18.38,7.41,20.13c.84.06,1.73.07,2.66.04.93-.03,1.82-.08,2.68-.16l7.43-20.15.99,18.31c-.33.08-.66.16-.99.26-.68.19-1.28.39-1.79.6l-.2,2.53h12.23l.2-2.58-2.65-.61-1.45-21.88Z"/><path class="cls-1" d="M81.71.54c-1.26-.06-2.5-.07-3.72-.04-1.22.03-2.33.09-3.35.19l-8.81,25.23c-.13.04-.26.07-.38.11-.59.18-1.07.38-1.44.59l-.2,2.53h9.13l.2-2.58-2.81-.59,1.45-4.43h10.16l1.34,4.16c-.99.23-1.83.5-2.5.81l-.2,2.64h12l.2-2.58-2.13-.4L81.71.54ZM72.95,17.97l3.94-12.08,3.91,12.08h-7.85Z"/><path class="cls-1" d="M111.02,25.41h-7.28V4.09c.56-.1,1.1-.21,1.61-.32.82-.18,1.5-.36,2.04-.53l.2-2.53h-13.35l-.2,2.58,2.81.61v21.86c-.98.27-1.82.55-2.5.85l-.2,2.53h21.88c.9-3.16,1.35-6.56,1.35-10.19h-2.7l-3.66,6.46Z"/><path class="cls-1" d="M136.55,25.41h-7.28V4.09c.56-.1,1.1-.21,1.61-.32.82-.18,1.5-.36,2.04-.53l.2-2.53h-13.35l-.2,2.58,2.81.61v21.86c-.98.27-1.82.55-2.5.85l-.2,2.53h21.88c.9-3.16,1.35-6.56,1.35-10.19h-2.7l-3.66,6.46Z"/><path class="cls-1" d="M9.97,63.41v-19.83c.98-.27,1.82-.55,2.5-.85l.2-2.53H.47l-.2,2.58,2.81.61v21.86c-.98.27-1.82.55-2.5.85l-.2,2.53h12.2l.2-2.58-2.81-.61v-2.03Z"/><path class="cls-1" d="M29.36,51.5l-3.33-1.03c-1.51-.48-2.61-1.03-3.29-1.67-.68-.63-1.02-1.42-1.02-2.35,0-2.12,1.35-3.19,4.05-3.19,1.25,0,2.55.23,3.9.68l2.31,4.8h3.07c.15-2.13.04-4.49-.34-7.09-2.47-1.26-5.23-1.9-8.27-1.9-3.33,0-5.98.81-7.95,2.44-1.97,1.63-2.96,3.81-2.96,6.55,0,4.15,2.51,7.01,7.52,8.56l3.33,1.03c1.42.44,2.44.96,3.07,1.56.63.6.95,1.36.95,2.28,0,1.09-.4,1.93-1.21,2.53-.8.59-1.95.89-3.45.89s-2.94-.28-4.37-.82l-2.92-6.22h-2.96c-.25,2.18-.13,4.83.34,7.95,2.37,1.72,5.46,2.58,9.25,2.58,3.56,0,6.39-.83,8.49-2.5,2.1-1.67,3.14-3.92,3.14-6.75,0-4.04-2.45-6.82-7.35-8.36Z"/><path class="cls-1" d="M67.13,53.49c.62-.23,1.18-.51,1.69-.82,2.07-1.26,3.1-3.08,3.1-5.46s-.94-3.99-2.81-5.2c-1.88-1.21-4.57-1.81-8.07-1.81h-12.92l-.2,2.58,2.81.61v21.86c-.98.27-1.82.55-2.5.85l-.2,2.53h12.21c4.05-.02,7.27-.8,9.66-2.34,2.42-1.56,3.63-3.66,3.63-6.3,0-3.32-2.13-5.49-6.4-6.51ZM57.61,43.83h3.07c2.55,0,3.82,1.44,3.82,4.31s-1.32,4.39-3.96,4.39h-2.93v-8.7ZM60.77,65.02h-3.16v-9.22h2.24c4.1,0,6.15,1.6,6.15,4.8,0,2.95-1.74,4.42-5.23,4.42Z"/><path class="cls-1" d="M85.64,63.41v-19.83c.98-.27,1.82-.55,2.5-.85l.2-2.53h-12.2l-.2,2.58,2.81.61v21.86c-.98.27-1.82.55-2.5.85l-.2,2.53h12.2l.2-2.58-2.81-.61v-2.03Z"/><path class="cls-1" d="M118.52,54.65h-12.15l-.2,2.58,3.96.61v7.21c-.75.1-1.5.16-2.27.16-6.13,0-9.19-3.77-9.19-11.31,0-7.05,2.62-10.57,7.87-10.57,1.44,0,2.85.21,4.22.63l2.38,5h3.04c.08-1.01.09-2.16.03-3.43-.06-1.27-.18-2.57-.37-3.89-.94-.59-2.2-1.06-3.78-1.41-1.58-.34-3.25-.52-5.01-.52-3.27,0-6.12.63-8.53,1.88-2.41,1.25-4.27,3.03-5.59,5.31-1.31,2.29-1.97,5-1.97,8.14,0,4.52,1.42,7.99,4.25,10.42,2.83,2.43,6.87,3.65,12.12,3.65,1.95,0,3.76-.17,5.41-.5,1.66-.33,3.06-.82,4.21-1.45v-9.16c.52-.16.96-.34,1.32-.54l.23-2.81Z"/></g></svg>