<?xml version="1.0" encoding="UTF-8"?><svg id="_圖層_2" xmlns="http://www.w3.org/2000/svg" viewBox="0 0 654.8 90.93"><defs><style>.cls-1{fill:none;stroke:#de7120;stroke-miterlimit:10;}</style></defs><g id="_文字"><path class="cls-1" d="M52.39,77.46h-22.23V12.39c1.72-.31,3.36-.63,4.91-.97,2.51-.55,4.59-1.1,6.22-1.62l.61-7.71H1.15l-.61,7.89,8.59,1.87v66.72c-3.01.81-5.55,1.67-7.63,2.58l-.61,7.71h66.79c2.75-9.64,4.12-20.01,4.12-31.12h-8.24l-11.17,19.72Z"/><path class="cls-1" d="M145.43,6.02c-6.66-3.68-14.52-5.52-23.58-5.52s-16.92,1.84-23.58,5.52c-6.66,3.68-11.81,8.9-15.43,15.65-3.62,6.75-5.43,14.71-5.43,23.89s1.81,17.03,5.43,23.75c3.62,6.72,8.77,11.92,15.43,15.6s14.49,5.52,23.49,5.52,17-1.84,23.67-5.52,11.8-8.9,15.43-15.65c3.62-6.75,5.43-14.71,5.43-23.89s-1.81-17.11-5.43-23.8c-3.62-6.69-8.77-11.88-15.43-15.56ZM123.95,79.21c-7.25,0-12.84-3.21-16.79-9.64-3.94-6.43-5.92-15.6-5.92-27.52,0-20.22,6.17-30.33,18.5-30.33,7.3,0,12.91,3.21,16.83,9.64,3.91,6.43,5.87,15.6,5.87,27.52,0,20.22-6.17,30.33-18.49,30.33Z"/><path class="cls-1" d="M231.67,78.63c-2.51.44-5.11.67-7.8.67-17.59,0-26.38-11.72-26.38-35.15,0-21.68,7.51-32.52,22.53-32.52,4.42,0,8.68.63,12.77,1.88l7.74,16.35h9.03c.47-7.65.12-15.46-1.05-23.4-3.04-1.81-7-3.24-11.88-4.29-4.88-1.05-9.92-1.58-15.12-1.58-9.76,0-18.22,1.91-25.38,5.74-7.16,3.83-12.7,9.23-16.61,16.22-3.92,6.98-5.87,15.24-5.87,24.76,0,13.85,4.21,24.49,12.62,31.91,8.42,7.42,20.45,11.13,36.11,11.13,5.14,0,10.11-.54,14.9-1.62,4.79-1.08,8.68-2.53,11.66-4.34,2.1-8.42,3.1-16.65,2.98-24.72h-9.38l-10.87,18.97Z"/><path class="cls-1" d="M310.57,1.55c-3.86-.18-7.64-.22-11.35-.13-3.71.09-7.12.28-10.21.57l-26.9,77.02c-.39.11-.78.22-1.15.34-1.81.56-3.27,1.15-4.38,1.8l-.61,7.71h27.87l.61-7.89-8.58-1.81,4.41-13.53h31.02l4.1,12.7c-3.03.71-5.58,1.53-7.64,2.47l-.61,8.06h36.64l.61-7.89-6.51-1.23L310.57,1.55ZM283.82,54.76l12.04-36.89,11.92,36.89h-23.96Z"/><path class="cls-1" d="M340.81,2.08c-1.81,9.17-2.31,18.67-1.49,28.49h8.59l8.12-17.09h11.43v65.1c-1.11.22-2.21.46-3.29.73-2.13.53-4.05,1.14-5.74,1.84l-.61,7.71h40.06l.61-7.89-9.99-1.88V13.47h11.43l8.12,17.09h8.59c.82-9.82.32-19.31-1.49-28.49h-74.33Z"/><path class="cls-1" d="M452.31,72.9V12.37c3.01-.81,5.55-1.67,7.63-2.58l.61-7.71h-37.25l-.61,7.89,8.59,1.87v66.72c-3.01.81-5.55,1.67-7.63,2.58l-.61,7.71h37.25l.61-7.89-8.59-1.87v-6.19Z"/><path class="cls-1" d="M536.63,6.02c-6.66-3.68-14.52-5.52-23.58-5.52s-16.92,1.84-23.58,5.52c-6.66,3.68-11.81,8.9-15.43,15.65-3.62,6.75-5.43,14.71-5.43,23.89s1.81,17.03,5.43,23.75c3.62,6.72,8.77,11.92,15.43,15.6s14.49,5.52,23.49,5.52,17-1.84,23.67-5.52c6.66-3.68,11.8-8.9,15.43-15.65,3.62-6.75,5.43-14.71,5.43-23.89s-1.81-17.11-5.43-23.8c-3.62-6.69-8.76-11.88-15.43-15.56ZM515.15,79.21c-7.25,0-12.84-3.21-16.79-9.64-3.94-6.43-5.92-15.6-5.92-27.52,0-20.22,6.17-30.33,18.5-30.33,7.3,0,12.91,3.21,16.83,9.64,3.91,6.43,5.87,15.6,5.87,27.52,0,20.22-6.17,30.33-18.49,30.33Z"/><path class="cls-1" d="M654.26,2.08h-29.72l-.61,7.89,8.59,1.87v45.7l-45.4-55.47h-21.48l-.61,7.89,8.77,3.1v65.5c-3.01.81-5.55,1.67-7.63,2.58l-.61,7.71h31.47l.61-7.89-9.82-1.87v-45.04l45.41,55.33c5.14.29,9.58.15,13.32-.44V12.37c2.61-.73,4.99-1.58,7.1-2.58l.61-7.71Z"/></g></svg>