<?xml version="1.0" encoding="UTF-8"?><svg id="_圖層_2" xmlns="http://www.w3.org/2000/svg" viewBox="0 0 614.69 90"><defs><style>.cls-1{fill:none;stroke:#de7120;stroke-miterlimit:10;}</style></defs><g id="_素材"><path class="cls-1" d="M58.7,42.17c1.86-.71,3.56-1.53,5.1-2.47,6.26-3.82,9.39-9.33,9.39-16.51s-2.84-12.08-8.52-15.73c-5.68-3.65-13.82-5.48-24.42-5.48H1.14l-.61,7.82,8.52,1.86v66.16c-2.98.81-5.5,1.66-7.56,2.56l-.61,7.65h36.94c12.25-.06,22-2.42,29.25-7.08,7.33-4.72,11-11.08,11-19.08,0-10.05-6.46-16.62-19.36-19.69ZM29.91,12.93h9.3c7.71,0,11.56,4.35,11.56,13.04s-4,13.3-11.99,13.3h-8.87V12.93ZM39.47,77.07h-9.56v-27.9h6.78c12.4,0,18.6,4.84,18.6,14.51,0,8.92-5.27,13.38-15.82,13.38Z"/><path class="cls-1" d="M135.77,9.8l9.73,1.85v48.56c0,4.98-1.51,8.82-4.52,11.52-3.01,2.69-7.27,4.04-12.78,4.04s-9.73-1.35-12.69-4.04c-2.95-2.69-4.43-6.53-4.43-11.52V12.06c1.45-.35,2.79-.69,4-1.01,2.09-.55,3.68-1.03,4.78-1.43l.61-7.65h-37.63l-.61,7.82,7.65,1.87v51.24c0,8.11,3.2,14.57,9.6,19.38,6.4,4.81,15.02,7.22,25.86,7.22s19.45-2.4,25.86-7.22c6.4-4.81,9.6-11.27,9.6-19.38V12.16c2.88-.88,5.11-1.72,6.69-2.53l.61-7.65h-31.72l-.61,7.82Z"/><path class="cls-1" d="M204.08,72.2V12.19c2.98-.81,5.5-1.66,7.56-2.56l.61-7.65h-36.94l-.61,7.82,8.52,1.86v66.16c-2.98.81-5.5,1.66-7.56,2.56l-.61,7.65h36.94l.61-7.82-8.52-1.86v-6.14Z"/><path class="cls-1" d="M271.84,76.72h-22.04V12.2c1.71-.31,3.34-.63,4.87-.96,2.49-.55,4.55-1.09,6.17-1.61l.61-7.65h-40.42l-.61,7.82,8.52,1.86v66.16c-2.98.81-5.5,1.66-7.56,2.56l-.61,7.65h66.23c2.72-9.56,4.09-19.84,4.09-30.85h-8.17l-11.07,19.56Z"/><path class="cls-1" d="M370.48,12.75c-8.25-7.08-20-10.66-35.24-10.77h0s-.7-.01-.7-.01h-36.24l-.61,7.82,8.52,1.86v66.16c-2.98.81-5.5,1.66-7.56,2.56l-.61,7.65h38.59c9.5,0,17.72-1.83,24.64-5.48,6.92-3.65,12.28-8.81,16.08-15.47,3.79-6.66,5.69-14.51,5.69-23.55,0-13.33-4.19-23.58-12.56-30.77ZM353.97,68.51c-3.62,5.48-8.82,8.21-15.6,8.21h-11.3V13.28h6.69c17.09,0,25.64,10.6,25.64,31.81,0,10.14-1.81,17.95-5.43,23.42Z"/><path class="cls-1" d="M419.72,72.2V12.19c2.98-.81,5.5-1.66,7.56-2.56l.61-7.65h-36.94l-.61,7.82,8.52,1.86v66.16c-2.98.81-5.5,1.66-7.56,2.56l-.61,7.65h36.94l.61-7.82-8.52-1.86v-6.14Z"/><path class="cls-1" d="M494.46,9.8l8.52,1.86v45.32L457.96,1.98h-21.29l-.61,7.82,8.69,3.07v64.94c-2.98.81-5.5,1.66-7.56,2.56l-.61,7.65h31.2l.61-7.82-9.73-1.85v-44.66l45.02,54.86c5.1.29,9.5.14,13.21-.43V12.18c2.59-.72,4.94-1.57,7.04-2.56l.61-7.65h-29.46l-.61,7.82Z"/><path class="cls-1" d="M614.14,45.7h-36.76l-.61,7.82,11.99,1.86v21.83c-2.26.3-4.54.47-6.87.47-18.54,0-27.81-11.41-27.81-34.24,0-21.32,7.94-31.98,23.81-31.98,4.35,0,8.62.64,12.78,1.91l7.21,15.13h9.21c.23-3.07.26-6.53.09-10.39-.17-3.85-.55-7.78-1.13-11.78-2.84-1.8-6.65-3.22-11.43-4.26-4.78-1.04-9.84-1.56-15.17-1.56-9.91,0-18.51,1.9-25.81,5.69-7.3,3.8-12.94,9.16-16.91,16.08-3.97,6.92-5.95,15.14-5.95,24.64,0,13.68,4.29,24.19,12.86,31.55,8.57,7.36,20.8,11.04,36.68,11.04,5.91,0,11.37-.51,16.38-1.52,5.01-1.01,9.26-2.48,12.73-4.39v-27.74c1.57-.49,2.9-1.04,4-1.64l.7-8.52Z"/></g></svg>